<svg id="SvgjsSvg1011" width="288" height="288" xmlns="http://www.w3.org/2000/svg" version="1.1" xmlns:xlink="http://www.w3.org/1999/xlink" xmlns:svgjs="http://svgjs.com/svgjs"><defs id="SvgjsDefs1012"></defs><g id="SvgjsG1013"><svg xmlns="http://www.w3.org/2000/svg" viewBox="0 0 24 24" width="288" height="288"><path d="M18,2H8A4,4,0,0,0,4,6V18a4,4,0,0,0,4,4H18a2,2,0,0,0,2-2V4A2,2,0,0,0,18,2ZM6,6A2,2,0,0,1,8,4H18V14H8a3.91,3.91,0,0,0-2,.56ZM8,20a2,2,0,0,1,0-4H18v4ZM10,8h4a1,1,0,0,0,0-2H10a1,1,0,0,0,0,2Z" fill="#6a5ae0" class="color000 svgShape"></path></svg></g></svg>