<svg id="SvgjsSvg1001" width="288" height="288" xmlns="http://www.w3.org/2000/svg" version="1.1" xmlns:xlink="http://www.w3.org/1999/xlink" xmlns:svgjs="http://svgjs.com/svgjs"><defs id="SvgjsDefs1002"></defs><g id="SvgjsG1008"><svg xmlns="http://www.w3.org/2000/svg" viewBox="0 0 24 24" width="288" height="288"><path d="M19,2H5A3,3,0,0,0,2,5V19a3,3,0,0,0,3,3H19a3,3,0,0,0,3-3V5A3,3,0,0,0,19,2ZM16.09,4l-4,4H7.91l4-4ZM4,5A1,1,0,0,1,5,4H9.09l-4,4H4ZM20,19a1,1,0,0,1-1,1H5a1,1,0,0,1-1-1V10H20ZM20,8H14.91l4-4H19a1,1,0,0,1,1,1Z" fill="#6a5ae0" class="color000 svgShape"></path></svg></g></svg>