<!DOCTYPE svg PUBLIC "-//W3C//DTD SVG 1.1//EN" "http://www.w3.org/Graphics/SVG/1.1/DTD/svg11.dtd">
<!-- Uploaded to: SVG Repo, www.svgrepo.com, Transformed by: SVG Repo Mixer Tools -->
<svg fill="#6A5AE0" height="800px" width="800px" version="1.1" id="Layer_1" xmlns="http://www.w3.org/2000/svg" xmlns:xlink="http://www.w3.org/1999/xlink" viewBox="0 0 512 512" xml:space="preserve">
<g id="SVGRepo_bgCarrier" stroke-width="0"/>
<g id="SVGRepo_tracerCarrier" stroke-linecap="round" stroke-linejoin="round"/>
<g id="SVGRepo_iconCarrier"> <g> <g> <path d="M473.043,66.783H122.435V50.087C122.435,22.469,99.966,0,72.348,0C44.73,0,22.261,22.469,22.261,50.087 c0,15.432,0,422.528,0,445.217c0,9.22,7.475,16.696,16.696,16.696h66.783c9.22,0,16.696-7.475,16.696-16.696v-128h350.609 c9.22,0,16.696-7.475,16.696-16.696V83.478C489.739,74.258,482.264,66.783,473.043,66.783z M55.652,50.087 c0-9.206,7.49-16.696,16.696-16.696s16.696,7.49,16.696,16.696v16.696H55.652V50.087z M89.043,478.609H55.652V367.304h33.391 V478.609z M456.348,333.913H55.652c0-8.809,0-224.937,0-233.739c16.575,0,384.205,0,400.696,0V333.913z"/> </g> </g> <g> <g> <path d="M256,133.565c-46.03,0-83.478,37.448-83.478,83.478S209.97,300.522,256,300.522s83.478-37.448,83.478-83.478 S302.03,133.565,256,133.565z M256,267.13c-27.618,0-50.087-22.469-50.087-50.087c0-27.618,22.469-50.087,50.087-50.087 c27.618,0,50.087,22.469,50.087,50.087C306.087,244.661,283.618,267.13,256,267.13z"/> </g> </g> </g>
</svg>