<svg width="800" height="800" viewBox="0 0 800 800" fill="none" xmlns="http://www.w3.org/2000/svg">
<g clip-path="url(#clip0_208_27)">
<path d="M555.738 387.328C562.131 393.722 572.459 393.558 578.852 387.164C590.984 374.869 603.607 371.59 609.344 374.705C616.066 378.476 618.033 390.443 614.098 404.05C611.475 412.738 616.557 421.918 625.246 424.377C626.721 424.869 628.361 425.033 629.836 425.033C636.885 425.033 643.443 420.443 645.574 413.394C654.098 384.05 646.066 357.656 625.246 346.181C604.918 334.869 577.541 341.918 555.574 364.213C549.18 370.607 549.344 380.935 555.738 387.328Z" fill="#6A5AE0" stroke="#6A5AE0" stroke-width="25"/>
<path d="M796.721 308.639C793.443 304.213 788.197 301.754 782.787 302.082C713.279 305.688 640.984 288.475 579.18 253.393C520 219.787 471.475 170.934 439.016 112.41C436.393 107.656 431.475 104.541 426.066 104.049C420.656 103.557 415.41 105.852 411.967 110.115C391.311 135.524 375.574 158.803 363.934 181.262C343.443 217.656 328.689 252.246 319.016 286.672C287.869 300.279 254.59 309.787 219.672 315.033C152.623 324.705 82.7869 316.18 23.2787 290.77C18.3607 288.639 12.623 289.131 8.19672 291.918C3.77049 294.705 0.819672 299.623 0.491803 305.033C-0.819672 334.213 0.491803 362.901 4.42623 390.77C21.1475 503.721 73.9344 602.902 145.574 656.016C181.148 682.41 219.672 696.016 257.869 696.016C265.902 696.016 273.934 695.361 281.967 694.213C334.59 686.672 380.492 653.557 413.77 599.787C433.443 607.492 454.59 611.262 476.721 611.262C512.951 611.262 551.803 600.934 590.82 580.606C657.705 545.688 718.361 484.869 761.639 409.131C761.803 408.967 761.803 408.803 761.967 408.475C776.885 379.623 789.344 351.262 799.18 323.885C800.82 318.803 800 313.065 796.721 308.639ZM395.902 564.705C395.738 564.869 395.738 565.033 395.574 565.197C394.59 567 393.607 568.803 392.623 570.77C364.098 622.902 323.607 655.033 277.049 661.59C239.672 667.164 200.984 656.18 165.082 629.459C100.164 581.426 52.2951 490.442 36.8852 386.016C34.2623 367.656 32.9508 348.803 32.7869 329.459C92.459 350.279 159.672 356.672 224.426 347.328C268.033 340.77 309.508 327.983 347.541 309.459C371.639 297.983 393.934 284.213 415.246 267.819C415.902 270.279 416.721 272.902 417.377 275.361C417.377 275.524 417.541 275.688 417.541 276.016C417.705 276.836 417.869 277.492 418.197 278.311C418.361 278.967 418.525 279.459 418.689 280.115C418.852 280.442 418.852 280.934 419.016 281.262C419.18 282.246 419.508 283.229 419.672 284.213C423.607 300.115 426.393 315.197 428.525 328.311C428.525 328.475 428.525 328.639 428.525 328.803C440.164 415.852 428.361 501.426 395.902 564.705ZM732.951 393.229C655.902 527.983 523.443 603.885 429.344 570.606C429.344 570.442 429.508 570.442 429.508 570.279C429.672 569.951 429.836 569.787 429.836 569.459C430.328 568.311 430.984 567.164 431.475 566.016C431.803 565.197 432.131 564.541 432.459 563.721C433.115 562.41 433.607 561.098 434.262 559.623C434.59 558.803 435.082 557.82 435.41 557C435.902 555.688 436.557 554.377 437.049 552.902C437.377 552.082 437.705 551.098 438.197 550.279C438.852 548.803 439.344 547.328 439.836 545.852C440.164 545.033 440.492 544.377 440.656 543.557C441.311 541.754 441.967 540.115 442.623 538.311C442.787 537.82 442.951 537.328 443.115 536.836C443.934 534.705 444.59 532.41 445.41 530.279V530.115C446.885 525.524 448.361 520.934 449.672 516.18C469.18 524.049 490.328 527.983 510.984 527.983C539.18 527.983 566.885 520.77 589.672 506.344C597.377 501.59 599.672 491.426 594.754 483.721C590 476.016 579.836 473.721 572.131 478.639C540.164 498.803 495.246 500.77 457.541 483.885C457.541 483.885 457.541 483.885 457.377 483.885C467.213 433.885 468.525 379.459 460.82 324.213V324.049C460.82 323.885 460.82 323.721 460.82 323.557C460 318.639 459.016 313.557 458.033 308.147C466.393 304.869 474.426 305.033 478.033 308.639C482.951 313.721 483.77 324.377 480.164 337.164C477.705 345.852 482.787 354.869 491.475 357.328C492.951 357.82 494.426 357.983 495.902 357.983C503.115 357.983 509.672 353.229 511.639 346.016C518.689 320.934 515.082 299.623 501.311 285.688C489.18 273.393 470.328 269.951 450.984 275.852C447.705 262.41 443.607 248.311 438.689 234.541C436.885 229.459 432.623 225.524 427.377 224.213C425.41 223.721 423.443 223.557 421.475 223.721C420.984 223.721 420.492 223.885 420.164 223.885C420 223.885 419.836 223.885 419.508 224.049C417.705 224.541 416.066 225.197 414.59 226.18C414.426 226.344 414.262 226.344 414.098 226.508C413.607 226.836 412.951 227.328 412.459 227.82C410.656 229.459 408.852 230.934 407.049 232.41C405.574 233.557 404.098 234.869 402.623 236.016C402.459 236.18 402.295 236.18 402.295 236.344C389.016 247 375.082 256.836 360.328 265.688C368.689 243.393 379.344 220.934 392.459 197.492C392.623 197.328 392.623 197.164 392.787 197C400.492 182.082 410.492 166.508 422.787 149.951C457.541 204.377 505.574 249.951 562.787 282.41C622.787 316.344 691.639 334.869 759.508 335.852C751.967 354.213 743.115 373.557 732.951 393.229Z" fill="#6A5AE0" stroke="#6A5AE0" stroke-width="25"/>
<path d="M133.279 459.295C141.312 459.295 148.361 453.394 149.672 445.033C151.148 433.066 157.377 425.525 162.295 425.033C170.328 424.377 179.508 431.098 185.246 441.754C189.508 449.623 199.344 452.738 207.377 448.475C215.246 444.213 218.361 434.377 214.098 426.344C202.131 403.721 180.656 390.443 159.344 392.246C137.541 394.377 120.656 413.721 117.049 440.771C115.902 449.787 122.131 457.984 131.148 459.131C131.803 459.295 132.623 459.295 133.279 459.295Z" fill="#6A5AE0" stroke="#6A5AE0" stroke-width="25"/>
<path d="M280.984 441.426C281.803 441.59 282.459 441.59 283.279 441.59C291.312 441.59 298.361 435.689 299.508 427.492C301.148 416.344 307.377 408.967 312.295 408.476C312.623 408.476 313.115 408.312 313.443 408.312C320.656 407 329.344 413.558 334.754 424.705C338.853 432.902 348.525 436.181 356.721 432.246C364.918 428.148 368.197 418.476 364.262 410.279C352.295 385.853 330.492 372.41 308.689 375.853C287.705 378.148 270.656 397.492 267.049 422.902C265.738 431.918 271.967 440.115 280.984 441.426Z" fill="#6A5AE0" stroke="#6A5AE0" stroke-width="25"/>
<path d="M370 494.377C361.311 492.246 352.295 497.492 350 506.18C340.328 542.902 307.377 571.099 265.901 577.82C224.59 583.23 183.442 565.361 163.442 533.23C158.688 525.525 148.524 523.23 140.82 527.984C133.115 532.738 130.82 542.902 135.574 550.607C159.508 588.803 203.279 611.59 250.656 611.59C257.213 611.59 263.77 611.099 270.492 610.279C270.656 610.279 270.82 610.279 270.983 610.279C325.41 601.426 368.852 563.885 381.803 514.377C383.934 505.689 378.688 496.672 370 494.377Z" fill="#6A5AE0" stroke="#6A5AE0" stroke-width="25"/>
</g>
<defs>
<clipPath id="clip0_208_27">
<rect width="800" height="800" fill="white"/>
</clipPath>
</defs>
</svg>
