<svg id="SvgjsSvg1012" width="288" height="288" xmlns="http://www.w3.org/2000/svg" version="1.1" xmlns:xlink="http://www.w3.org/1999/xlink" xmlns:svgjs="http://svgjs.com/svgjs"><defs id="SvgjsDefs1013"></defs><g id="SvgjsG1014"><svg xmlns="http://www.w3.org/2000/svg" viewBox="0 0 64 64" width="288" height="288"><path d="M19.883 63.971c.378.019.755.029 1.131.029 4.366 0 8.514-1.339 12.028-3.815A6.933 6.933 0 0 0 39.265 64h17.471c2.383 0 4.579-1.194 5.875-3.195s1.487-4.494.512-6.668l-7.46-16.643A18.883 18.883 0 0 1 54 29.722v-7.073a3.495 3.495 0 0 0 2-3.149c0-1.93-1.57-3.5-3.5-3.5H49v-2.294c.379.132.754.214 1.124.214.326 0 .647-.051.965-.154 2.268-.735 3.154-3.862 3.248-4.216a1 1 0 0 0-.6-1.186c-.307-.122-2.825-1.061-4.737-.211v-.541c1.136-.645 1.797-1.503 1.962-2.559.366-2.355-2.023-4.557-2.298-4.801a.999.999 0 0 0-1.328 0c-.274.244-2.664 2.445-2.298 4.801.165 1.057.826 1.914 1.962 2.559v.534c-1.909-.838-4.417.096-4.723.218a1.001 1.001 0 0 0-.6 1.186c.094.354.981 3.48 3.249 4.216.317.103.639.154.965.154.364 0 .735-.081 1.108-.209V16h-3.5c-1.93 0-3.5 1.57-3.5 3.5 0 1.391.822 2.585 2 3.149v7.073c0 2.225-.403 4.39-1.157 6.465-1.834-5.316-5.754-9.805-11.007-12.243-1.723-.8-2.836-2.566-2.836-4.5V6.949c1.692-.245 3-1.691 3-3.449A3.502 3.502 0 0 0 26.5 0h-11C13.57 0 12 1.57 12 3.5c0 1.758 1.308 3.204 3 3.449v12.493c0 1.934-1.112 3.7-2.834 4.5C4.744 27.387-.031 34.9 0 43.083c.043 10.952 8.962 20.322 19.883 20.888zM49.58 10.105c.604-.434 1.674-.335 2.49-.154-.339.767-.895 1.686-1.601 1.913-.408.132-.896.008-1.458-.367.031-.674.221-1.142.569-1.392zm-1.579-7.65c.548.672 1.095 1.584.984 2.291-.065.425-.396.806-.985 1.138-.588-.331-.919-.711-.985-1.135-.116-.734.455-1.645.986-2.294zm-2.455 9.409c-.706-.228-1.263-1.146-1.602-1.913.821-.181 1.89-.278 2.491.154.341.246.529.703.564 1.357v.037c-.557.373-1.041.499-1.453.365zm-25.56 50.11c-3.346-.173-6.473-1.277-9.162-3.024 1.6-.301 2.937-.308 3.859-.001 2.066.689 4.106.528 5.367.303A.988.988 0 0 0 21 60a1 1 0 0 0 1-1c0-.09.005-.172.006-.26 2.244-.631 5.32-1 6.328.007.049.043.675.589 1.641.988a18.959 18.959 0 0 1-9.989 2.239zM55.939 43H49V23h3v6.722c0 2.979.618 5.87 1.838 8.59L55.939 43zM52.5 18c.827 0 1.5.673 1.5 1.5s-.673 1.5-1.5 1.5H49v-3h3.5zm-9 0H47v3h-3.5c-.827 0-1.5-.673-1.5-1.5s.673-1.5 1.5-1.5zm-1.338 20.312A20.86 20.86 0 0 0 43.993 30H45a1 1 0 1 0 0-2h-1v-2h1a1 1 0 1 0 0-2h-1v-1h3v20h-3a1 1 0 1 0 0 2h3v1a1 1 0 1 0 2 0v-1h7.836l4.462 9.955a4.981 4.981 0 0 1-.366 4.763A4.983 4.983 0 0 1 56.735 62h-17.47a4.954 4.954 0 0 1-4.604-3.078c.267-.229.541-.446.799-.69C39.677 54.227 42 48.818 42 43c0-1.219-.119-2.419-.326-3.597l.488-1.091zM14 3.5c0-.827.673-1.5 1.5-1.5h11c.827 0 1.5.673 1.5 1.5S27.327 5 26.5 5h-11c-.827 0-1.5-.673-1.5-1.5zm-.992 22.257C15.433 24.63 17 22.152 17 19.443V18h4a1 1 0 1 0 0-2h-4v-4h3a1 1 0 1 0 0-2h-3V7h8v12.443c0 2.709 1.567 5.188 3.994 6.315C35.68 28.862 40 35.629 40 43c0 5.264-2.102 10.158-5.918 13.782-.48.456-.98.883-1.497 1.282-1.516.364-2.875-.772-2.878-.772-1.762-1.762-5.52-1.16-7.608-.644.344-4.224 1.541-6.987 2.222-8.25 1.198.324 2.32.495 3.353.495 1.918 0 3.547-.558 4.866-1.672 4.779-4.035 3.445-13.898 3.387-14.316a.992.992 0 0 0-1.093-.854c-.42.043-10.313 1.125-13.078 6.736-1.194 2.423-.867 5.256.934 8.418-.454.796-1.129 2.178-1.69 4.156-.561-1.978-1.236-3.359-1.69-4.156 1.801-3.162 2.128-5.995.934-8.418-2.765-5.611-12.658-6.693-13.078-6.736a.995.995 0 0 0-1.093.854c-.058.418-1.392 10.281 3.387 14.316 1.319 1.114 2.947 1.672 4.866 1.672 1.034 0 2.158-.172 3.358-.497.713 1.311 1.986 4.255 2.259 8.84-.985.201-2.814.419-4.626-.186-1.982-.661-4.59-.217-6.593.338C4.648 53.882 2.022 48.713 2 43.076c-.028-7.405 4.292-14.202 11.008-17.319zm13.347 19.885c2.56-1.43 4.524-1.123 5.617-.706a5.565 5.565 0 0 1-.722.757c-1.366 1.152-3.273 1.471-5.684.957l.789-1.008zm6.652-2.437c-.943-.413-2.449-.818-4.355-.5l1.371-1.753c1.976-.901 3.207-.951 3.846-.853-.173 1.073-.445 2.142-.862 3.106zm1.081-5.093c-.497-.068-1.128-.064-1.89.06l1.929-2.467c.02.717.016 1.536-.039 2.407zm-3.467-1.172c-.064-.768-.212-1.381-.396-1.847a27.242 27.242 0 0 1 2.324-.619l-1.928 2.466zm-2.271-1.155c.249.6.5 1.801.102 3.929l-1.376 1.76c-.15-1.926-.904-3.289-1.532-4.106.834-.637 1.806-1.157 2.806-1.583zm-4.801 3.889c.154-.313.35-.604.562-.885.669.96 1.439 2.792.667 5.622l-.789 1.008c-1.079-2.215-1.228-4.143-.44-5.745zm-5.539 5.745-.789-1.008c-.771-2.829-.001-4.662.667-5.622.212.281.408.572.562.885.789 1.602.64 3.53-.44 5.745zm-3.085-3.945-1.376-1.76c-.398-2.128-.147-3.329.102-3.929 1 .426 1.972.946 2.806 1.583-.628.816-1.382 2.18-1.532 4.106zm-3.546-4.534-1.928-2.466c.7.154 1.494.356 2.324.619-.184.465-.332 1.079-.396 1.847zm-1.577 1.232c-.761-.123-1.391-.128-1.887-.061a26.917 26.917 0 0 1-.04-2.404l1.927 2.465zm2.176 2.781 1.371 1.753c-1.906-.318-3.41.086-4.354.498-.417-.964-.688-2.032-.86-3.105.64-.098 1.87-.045 3.843.854zm3.667 4.689.789 1.009c-2.408.514-4.316.195-5.682-.956a5.537 5.537 0 0 1-.724-.759c1.094-.417 3.058-.723 5.617.706z" fill="#6a5ae0" class="color000 svgShape"></path><path d="M41 53c0 1.654 1.346 3 3 3s3-1.346 3-3-1.346-3-3-3-3 1.346-3 3zm3-1a1.001 1.001 0 1 1-1 1c0-.551.448-1 1-1zm9 1c1.654 0 3-1.346 3-3s-1.346-3-3-3-3 1.346-3 3 1.346 3 3 3zm0-4a1.001 1.001 0 1 1-1 1c0-.551.448-1 1-1zm-2 12c1.654 0 3-1.346 3-3s-1.346-3-3-3-3 1.346-3 3 1.346 3 3 3zm0-4a1.001 1.001 0 1 1-1 1c0-.551.448-1 1-1z" fill="#6a5ae0" class="color000 svgShape"></path></svg></g></svg>