<svg width="132" height="128" viewBox="0 0 132 128" fill="none" xmlns="http://www.w3.org/2000/svg">
<circle cx="64.4516" cy="59.9032" r="44.9032" fill="#EFEEFC"/>
<circle cx="64.4515" cy="59.9032" r="35.0968" fill="#CBC7FD"/>
<path d="M64.6851 104.171C60.5624 108.385 54.8124 111 48.4516 111C40.8593 111 34.1372 107.274 30.0138 101.551C27.9784 107.067 22.6743 111 16.4516 111C8.47021 111 2 104.53 2 96.5483C2 88.5669 8.47021 82.0967 16.4516 82.0967C20.063 82.0967 23.3651 83.4214 25.8983 85.6114C27.2238 74.3317 36.8157 65.5806 48.4516 65.5806C56.2914 65.5806 63.2034 69.5532 67.2843 75.5952C70.6822 72.8808 74.9903 71.258 79.6774 71.258C88.3259 71.258 95.6839 76.783 98.4144 84.4959C100.496 83.298 102.91 82.6128 105.484 82.6128C113.04 82.6128 119.218 88.5179 119.653 95.9653C120.467 95.6744 121.344 95.5161 122.258 95.5161C126.534 95.5161 130 98.9822 130 103.258C130 107.534 126.534 111 122.258 111C119.309 111 116.745 109.351 115.438 106.925C112.876 109.445 109.362 111 105.484 111C100.7 111 96.4697 108.634 93.8983 105.008C90.2897 108.705 85.2516 111 79.6774 111C73.6939 111 68.3281 108.355 64.6851 104.171Z" fill="white"/>
<path d="M2 96.5483C2 88.5669 8.47021 82.0967 16.4516 82.0967C20.063 82.0967 23.3651 83.4214 25.8983 85.6114C27.2238 74.3317 36.8157 65.5806 48.4516 65.5806C56.2914 65.5806 63.2034 69.5532 67.2843 75.5952C70.6822 72.8808 74.9903 71.258 79.6774 71.258C88.3259 71.258 95.6839 76.783 98.4144 84.4959C100.496 83.298 102.91 82.6128 105.484 82.6128C113.04 82.6128 119.218 88.5179 119.653 95.9653C120.467 95.6744 121.344 95.5161 122.258 95.5161C126.534 95.5161 130 98.9822 130 103.258" stroke="#EFEEFC" stroke-width="2.06618" stroke-linecap="round"/>
<circle cx="91.2903" cy="41.3226" r="1.54839" stroke="#6A5AE0" stroke-width="1.54963"/>
<circle cx="105.742" cy="78.4839" r="1.03226" stroke="#6A5AE0" stroke-width="1.54963"/>
<circle cx="24.9678" cy="70.484" r="2.32258" stroke="#6A5AE0" stroke-width="1.54963"/>
<path d="M42.7564 53.7097H37.6129M46.3871 49.257V44.9355" stroke="#6A5AE0" stroke-width="1.54963" stroke-linecap="round"/>
<path d="M43.059 50.1722L39.6377 46.751" stroke="#6A5AE0" stroke-width="1.54963" stroke-linecap="round"/>
<ellipse cx="64.7097" cy="108.677" rx="26.0645" ry="2.32258" fill="#CBC7FD"/>
<circle cx="63.1613" cy="68.9355" r="14.7097" fill="#EAF9FF"/>
<rect x="76.3267" y="75.2883" width="28.7696" height="10.2965" rx="5.14824" transform="rotate(45 76.3267 75.2883)" fill="#6A5AE0"/>
<circle cx="63.2642" cy="69.5065" r="15.7451" transform="rotate(45 63.2642 69.5065)" stroke="#6A5AE0" stroke-width="6.06162"/>
<rect width="12.4047" height="2.13875" rx="1.06937" transform="matrix(-0.707107 -0.707107 -0.707107 0.707107 68.406 73.145)" fill="#6A5AE0"/>
<rect width="12.4047" height="2.13875" rx="1.06937" transform="matrix(-0.707107 0.707107 0.707107 0.707107 66.8937 64.3735)" fill="#6A5AE0"/>
<path fill-rule="evenodd" clip-rule="evenodd" d="M64.818 45.008C64.1847 44.968 63.6389 45.4491 63.599 46.0824C63.559 46.7157 64.0401 47.2614 64.6734 47.3014C69.8901 47.6304 75.0102 49.7872 78.9967 53.7737C81.8531 56.6302 83.769 60.067 84.7474 63.7035C84.9123 64.3163 85.5427 64.6794 86.1555 64.5145C86.7682 64.3497 87.1313 63.7193 86.9665 63.1065C85.8862 59.0916 83.7702 55.2974 80.6216 52.1488C76.2245 47.7517 70.5716 45.3708 64.818 45.008ZM60.624 47.0743C61.2586 47.0743 61.773 46.5599 61.773 45.9253C61.773 45.2907 61.2586 44.7763 60.624 44.7763C59.9895 44.7763 59.4751 45.2907 59.4751 45.9253C59.4751 46.5599 59.9895 47.0743 60.624 47.0743Z" fill="#6A5AE0"/>
<path d="M79.4529 82.9375L91.1724 94.657" stroke="white" stroke-width="2.2998" stroke-linecap="round"/>
</svg>
