<svg width="83" height="111" viewBox="0 0 83 111" fill="none" xmlns="http://www.w3.org/2000/svg">
<path d="M8.07378 102.783C7.46394 102.783 6.99855 102.614 6.67758 102.277C6.35662 101.94 6.19614 101.467 6.19614 100.857V88.6765H1.93534C1.43785 88.6765 1.05269 88.54 0.779872 88.2672C0.507052 87.9944 0.370643 87.6173 0.370643 87.1358C0.370643 86.6383 0.507052 86.2612 0.779872 86.0044C1.05269 85.7316 1.43785 85.5952 1.93534 85.5952H14.1881C14.6856 85.5952 15.0708 85.7316 15.3436 86.0044C15.6164 86.2612 15.7528 86.6383 15.7528 87.1358C15.7528 87.6173 15.6164 87.9944 15.3436 88.2672C15.0708 88.54 14.6856 88.6765 14.1881 88.6765H9.92734V100.857C9.92734 101.467 9.76686 101.94 9.4459 102.277C9.14098 102.614 8.68361 102.783 8.07378 102.783ZM16.7815 102.783C16.1717 102.783 15.7063 102.622 15.3854 102.301C15.0644 101.98 14.9039 101.523 14.9039 100.929V92.3836C14.9039 91.7898 15.0564 91.3405 15.3613 91.0355C15.6822 90.7146 16.1236 90.5541 16.6853 90.5541C17.263 90.5541 17.7043 90.7146 18.0092 91.0355C18.3142 91.3405 18.4666 91.7898 18.4666 92.3836V93.6353H18.2259C18.4185 92.6725 18.8437 91.9262 19.5017 91.3966C20.1597 90.867 21.0102 90.5701 22.0534 90.5059C22.4546 90.4738 22.7595 90.5782 22.9681 90.8189C23.1928 91.0436 23.3132 91.4207 23.3292 91.9503C23.3613 92.4478 23.257 92.841 23.0163 93.1298C22.7916 93.4187 22.4064 93.5952 21.8608 93.6594L21.3071 93.7076C20.3924 93.7878 19.7103 94.0526 19.261 94.5019C18.8277 94.9513 18.611 95.6012 18.611 96.4518V100.929C18.611 101.523 18.4506 101.98 18.1296 102.301C17.8247 102.622 17.3753 102.783 16.7815 102.783ZM26.4131 102.759C25.8193 102.759 25.3619 102.59 25.041 102.253C24.7361 101.9 24.5836 101.411 24.5836 100.785V92.5521C24.5836 91.9102 24.7361 91.4207 25.041 91.0837C25.3619 90.7306 25.8193 90.5541 26.4131 90.5541C26.9908 90.5541 27.4322 90.7306 27.7371 91.0837C28.058 91.4207 28.2185 91.9102 28.2185 92.5521V100.785C28.2185 101.411 28.0661 101.9 27.7611 102.253C27.4562 102.59 27.0069 102.759 26.4131 102.759ZM26.4131 88.5802C25.7391 88.5802 25.2175 88.4277 24.8484 88.1228C24.4953 87.8018 24.3188 87.3525 24.3188 86.7747C24.3188 86.181 24.4953 85.7316 24.8484 85.4267C25.2175 85.1057 25.7391 84.9452 26.4131 84.9452C27.0871 84.9452 27.6007 85.1057 27.9537 85.4267C28.3068 85.7316 28.4833 86.181 28.4833 86.7747C28.4833 87.3525 28.3068 87.8018 27.9537 88.1228C27.6007 88.4277 27.0871 88.5802 26.4131 88.5802ZM35.7911 102.783C35.3257 102.783 34.9165 102.662 34.5634 102.422C34.2104 102.165 33.9295 101.788 33.7209 101.29L30.086 92.9132C29.9095 92.4959 29.8453 92.1108 29.8934 91.7577C29.9416 91.3886 30.1101 91.0997 30.3989 90.8911C30.7039 90.6664 31.1211 90.5541 31.6507 90.5541C32.084 90.5541 32.4371 90.6584 32.7099 90.867C32.9827 91.0596 33.2234 91.4367 33.432 91.9984L36.2726 99.2201H35.5023L38.4632 91.9744C38.6878 91.4287 38.9366 91.0596 39.2094 90.867C39.4822 90.6584 39.8594 90.5541 40.3408 90.5541C40.7581 90.5541 41.087 90.6664 41.3278 90.8911C41.5845 91.0997 41.737 91.3806 41.7851 91.7336C41.8493 92.0867 41.7851 92.4718 41.5926 92.8891L37.8854 101.29C37.6768 101.804 37.396 102.181 37.0429 102.422C36.7059 102.662 36.2886 102.783 35.7911 102.783ZM45.2318 102.759C44.638 102.759 44.1806 102.59 43.8597 102.253C43.5548 101.9 43.4023 101.411 43.4023 100.785V92.5521C43.4023 91.9102 43.5548 91.4207 43.8597 91.0837C44.1806 90.7306 44.638 90.5541 45.2318 90.5541C45.8095 90.5541 46.2509 90.7306 46.5558 91.0837C46.8767 91.4207 47.0372 91.9102 47.0372 92.5521V100.785C47.0372 101.411 46.8848 101.9 46.5798 102.253C46.2749 102.59 45.8256 102.759 45.2318 102.759ZM45.2318 88.5802C44.5578 88.5802 44.0362 88.4277 43.6671 88.1228C43.314 87.8018 43.1375 87.3525 43.1375 86.7747C43.1375 86.181 43.314 85.7316 43.6671 85.4267C44.0362 85.1057 44.5578 84.9452 45.2318 84.9452C45.9058 84.9452 46.4194 85.1057 46.7724 85.4267C47.1255 85.7316 47.302 86.181 47.302 86.7747C47.302 87.3525 47.1255 87.8018 46.7724 88.1228C46.4194 88.4277 45.9058 88.5802 45.2318 88.5802ZM53.9599 102.831C52.9649 102.831 52.1384 102.646 51.4804 102.277C50.8225 101.908 50.333 101.355 50.012 100.616C49.7071 99.862 49.5547 98.9312 49.5547 97.8239V92.3836C49.5547 91.7738 49.7071 91.3164 50.012 91.0115C50.333 90.7065 50.7823 90.5541 51.3601 90.5541C51.9378 90.5541 52.3872 90.7065 52.7081 91.0115C53.0291 91.3164 53.1896 91.7738 53.1896 92.3836V97.9202C53.1896 98.6263 53.334 99.1559 53.6229 99.509C53.9117 99.846 54.3691 100.014 54.995 100.014C55.6851 100.014 56.2467 99.7738 56.6801 99.2923C57.1294 98.7948 57.3541 98.1449 57.3541 97.3425V92.3836C57.3541 91.7738 57.5065 91.3164 57.8114 91.0115C58.1324 90.7065 58.5818 90.5541 59.1595 90.5541C59.7533 90.5541 60.2026 90.7065 60.5075 91.0115C60.8285 91.3164 60.989 91.7738 60.989 92.3836V100.929C60.989 102.165 60.4032 102.783 59.2317 102.783C58.654 102.783 58.2127 102.622 57.9077 102.301C57.6028 101.98 57.4504 101.523 57.4504 100.929V99.3164L57.8114 100.255C57.4584 101.074 56.9529 101.708 56.2949 102.157C55.6369 102.606 54.8586 102.831 53.9599 102.831ZM65.4386 102.783C64.8448 102.783 64.3874 102.622 64.0665 102.301C63.7616 101.98 63.6091 101.523 63.6091 100.929V92.3836C63.6091 91.7898 63.7616 91.3405 64.0665 91.0355C64.3874 90.7146 64.8288 90.5541 65.3905 90.5541C65.9682 90.5541 66.4095 90.7146 66.7144 91.0355C67.0194 91.3405 67.1718 91.7898 67.1718 92.3836V93.9242L66.907 92.9613C67.228 92.2231 67.7255 91.6293 68.3995 91.18C69.0735 90.7306 69.8679 90.5059 70.7827 90.5059C71.6974 90.5059 72.4597 90.7226 73.0695 91.1559C73.6794 91.5892 74.1127 92.2552 74.3694 93.1539H74.0324C74.3855 92.3354 74.9231 91.6935 75.6453 91.2281C76.3835 90.7467 77.226 90.5059 78.1728 90.5059C79.0876 90.5059 79.8338 90.6905 80.4116 91.0596C81.0054 91.4127 81.4467 91.9583 81.7355 92.6965C82.0244 93.4187 82.1688 94.3415 82.1688 95.4648V100.929C82.1688 101.523 82.0084 101.98 81.6874 102.301C81.3825 102.622 80.9412 102.783 80.3634 102.783C79.7696 102.783 79.3123 102.622 78.9913 102.301C78.6864 101.98 78.5339 101.523 78.5339 100.929V95.5852C78.5339 94.7988 78.4055 94.2291 78.1488 93.8761C77.908 93.507 77.4908 93.3224 76.897 93.3224C76.2069 93.3224 75.6693 93.5631 75.2842 94.0446C74.899 94.526 74.7064 95.2081 74.7064 96.0907V100.929C74.7064 101.523 74.546 101.98 74.225 102.301C73.9201 102.622 73.4787 102.783 72.901 102.783C72.3233 102.783 71.8739 102.622 71.553 102.301C71.232 101.98 71.0715 101.523 71.0715 100.929V95.5852C71.0715 94.7988 70.9431 94.2291 70.6864 93.8761C70.4456 93.507 70.0284 93.3224 69.4346 93.3224C68.7445 93.3224 68.2069 93.5631 67.8218 94.0446C67.4366 94.526 67.244 95.2081 67.244 96.0907V100.929C67.244 102.165 66.6422 102.783 65.4386 102.783Z" fill="white"/>
<mask id="mask0_141_181" style="mask-type:alpha" maskUnits="userSpaceOnUse" x="8" y="0" width="67" height="67">
<rect x="8.02441" width="66.8675" height="66.8675" rx="16.0482" fill="#6A5AE0"/>
</mask>
<g mask="url(#mask0_141_181)">
<path d="M77 48.3652C76.9998 57.816 73.1442 66.8797 66.2815 73.5625C59.4188 80.2453 50.1112 83.9997 40.4059 84C39.9053 84 39.4143 83.9908 38.9138 83.9724C36.2406 83.8661 33.5872 83.4776 31 82.8137C31.5005 82.5654 31.9916 82.3171 32.4827 82.0504C32.4921 82.0504 32.5015 82.0412 32.5204 82.032L32.5299 82.0228C33.0493 81.747 33.5592 81.4711 34.0597 81.186C34.1825 81.1124 34.3053 81.0481 34.428 80.9837C34.9002 80.7078 35.3724 80.4319 35.8351 80.1376C35.972 80.0655 36.1044 79.9856 36.2318 79.8985C36.5906 79.687 36.9495 79.4571 37.2989 79.2272C37.5444 79.0709 37.7994 78.9054 38.0355 78.749C38.3944 78.5099 38.7438 78.2708 39.0932 78.0225C39.3293 77.8662 39.5465 77.7099 39.7731 77.5352C40.0753 77.3328 40.3681 77.1121 40.6608 76.8914C40.9253 76.7075 41.1802 76.5144 41.4352 76.3121C41.7941 76.0454 42.1435 75.7695 42.4929 75.4752C42.644 75.3649 42.7951 75.2453 42.9462 75.1166C43.3239 74.8131 43.6922 74.5004 44.0605 74.1786C44.2589 74.0131 44.4572 73.8475 44.6555 73.6636C44.8727 73.4797 45.0805 73.2958 45.2882 73.1026C45.6849 72.7532 46.072 72.3853 46.4592 72.0175C46.5111 71.9762 46.5586 71.93 46.6009 71.8796C46.9786 71.5301 47.3469 71.1623 47.7058 70.7944C47.9608 70.5553 48.1969 70.307 48.4235 70.0587C48.6974 69.7921 48.9524 69.5162 49.2073 69.2403C49.3584 69.084 49.5001 68.9276 49.6323 68.7713C49.9723 68.4034 50.3028 68.0264 50.6333 67.6494C50.8033 67.4562 50.9733 67.2539 51.1338 67.0516C51.3794 66.7757 51.6155 66.4999 51.8327 66.2148C52.0593 65.9481 52.2765 65.6722 52.4843 65.3963C52.6826 65.1572 52.8715 64.9089 53.0509 64.6698C53.2964 64.3572 53.5325 64.0445 53.7592 63.7226C53.9858 63.4008 54.2313 63.0789 54.458 62.7478C54.5705 62.6035 54.6745 62.453 54.7696 62.2972C55.0907 61.8374 55.4024 61.3684 55.7046 60.8994C56.0917 60.3201 56.46 59.7315 56.8095 59.1338C56.97 58.8763 57.1211 58.6188 57.2722 58.3613C58.4968 56.2581 59.5882 54.0837 60.5397 51.8505C60.6813 51.5378 60.8136 51.2252 60.9363 50.9033C61.0874 50.563 61.2196 50.2136 61.3518 49.8641C61.4652 49.5791 61.5785 49.2848 61.6824 48.9905C61.8051 48.6686 61.9185 48.3376 62.0318 48.0157C62.4473 46.8386 62.8251 45.6523 63.1556 44.4476C63.2406 44.1442 63.3256 43.8499 63.4011 43.5464C63.4578 43.3533 63.505 43.1694 63.5522 42.9763L63.7789 42.0383C64.0811 40.76 64.336 39.4726 64.5532 38.1667L64.6949 37.2839C64.7138 37.1459 64.7327 37.0172 64.7516 36.8793C64.8082 36.5298 64.8554 36.1804 64.8932 35.8309C64.9593 35.3067 65.0254 34.7826 65.0726 34.2584C65.0915 34.1204 65.101 33.9825 65.1104 33.8446C65.1482 33.4859 65.1765 33.1181 65.2049 32.7594C65.2332 32.4008 65.2521 32.0237 65.271 31.6559C65.2898 31.3984 65.2993 31.1409 65.3087 30.8742C65.3465 30.0282 65.3654 29.1821 65.3654 28.3361C65.3654 27.9039 65.3654 27.4809 65.3465 27.0578C65.3465 26.8371 65.3465 26.6256 65.3371 26.4049C65.3087 25.6416 65.271 24.8876 65.2143 24.1335L65.2143 24.1059C65.2048 23.922 65.1954 23.7381 65.1765 23.5541C65.1387 23.0484 65.0915 22.5518 65.0443 22.046C65.0446 22.0302 65.0414 22.0144 65.0349 22C66.3072 23.1285 67.4969 24.3422 68.5951 25.6325L68.6234 25.66C68.6286 25.665 68.6319 25.6714 68.6329 25.6784C74.0541 32.0588 77.0139 40.084 77 48.3652Z" fill="#FF8FA2"/>
<path d="M65.6746 28.2736C65.6796 39.1886 62.7131 49.902 57.0892 59.2797C51.4653 68.6576 43.3931 76.3509 33.727 81.5457C33.715 81.5596 33.6989 81.5693 33.6809 81.5731L33.6718 81.5822C33.194 81.8377 32.7163 82.0841 32.2385 82.3305C29.2399 81.5456 26.36 80.3672 23.675 78.8265C21.7326 77.7154 19.8991 76.4261 18.1987 74.9757C18.5203 74.6381 18.8327 74.3004 19.1451 73.9537L19.1542 73.9446C19.1542 73.9354 19.1635 73.9263 19.1727 73.9172L19.1818 73.9172C29.2363 62.8195 34.7888 48.4127 34.7652 33.484C34.7667 27.0532 33.7433 20.6626 31.733 14.5495L31.7239 14.5495C31.7239 14.5312 31.7147 14.513 31.7147 14.4947L31.7054 14.4947C31.7002 14.4801 31.6971 14.4647 31.6964 14.4491C31.5126 13.8925 31.3196 13.3359 31.1175 12.7884L41.39 12.7884C50.2538 12.7762 58.8016 16.0572 65.353 21.9864C65.4265 22.6799 65.4817 23.3734 65.5276 24.076C65.6287 25.4631 65.6746 26.8592 65.6746 28.2736Z" fill="#9087E5"/>
<path d="M34.7711 33.4003C34.7711 34.0117 34.762 34.623 34.7437 35.2253C34.7346 35.6177 34.7164 36.0009 34.6981 36.3933C34.6252 37.9628 34.4885 39.5232 34.2879 41.0744C34.2423 41.4759 34.1876 41.8683 34.1238 42.2606C34.06 42.7443 33.978 43.2188 33.8959 43.7024C33.823 44.1586 33.7409 44.6058 33.6498 45.062C33.6315 45.1715 33.6042 45.281 33.586 45.3905C33.513 45.7646 33.431 46.1479 33.3489 46.522C32.9207 48.4667 32.3944 50.3884 31.7718 52.2799C31.6533 52.654 31.5257 53.019 31.398 53.3749C31.3869 53.4188 31.3717 53.4616 31.3524 53.5026C31.2248 53.8767 31.0972 54.2326 30.9604 54.5976C30.924 54.7071 30.8784 54.8257 30.8328 54.9444C30.6869 55.3367 30.532 55.72 30.377 56.1032C30.2038 56.5412 30.0215 56.9792 29.83 57.4081C29.6386 57.8552 29.438 58.3024 29.2374 58.7495C29.046 59.1601 28.8454 59.5707 28.654 59.9722C28.4443 60.4011 28.2346 60.8209 28.0159 61.2315C27.7971 61.6421 27.5783 62.0619 27.3504 62.4725C27.1224 62.8831 26.8945 63.2937 26.6666 63.6952C26.4387 64.0967 26.1926 64.5073 25.9464 64.9088C25.7003 65.3103 25.4542 65.7027 25.1989 66.0951C24.6975 66.8798 24.1779 67.6555 23.64 68.4128C23.1021 69.1702 22.5369 69.9185 21.9717 70.6576C21.1148 71.7435 20.2275 72.802 19.3097 73.8331L19.3006 73.8331C19.2915 73.8422 19.2915 73.8422 19.2915 73.8513C19.2915 73.8537 19.2906 73.8561 19.2888 73.8578C19.2871 73.8594 19.2848 73.8605 19.2824 73.8605C18.9724 74.2072 18.6533 74.554 18.3343 74.8916C16.8979 73.6561 15.5626 72.3073 14.3413 70.8583C14.3321 70.841 14.3197 70.8256 14.3049 70.8127C8.94363 64.4483 6.00779 56.3889 6.01809 48.0641L6.01809 12.7048L31.1519 12.7048C31.3524 13.2523 31.5439 13.7998 31.7171 14.3565L31.7262 14.3656C31.727 14.3811 31.7301 14.3965 31.7353 14.4112L31.7444 14.4112L31.7444 14.4386C31.7439 14.4435 31.7444 14.4485 31.7459 14.4533C31.7475 14.458 31.7502 14.4623 31.7536 14.4659L31.7627 14.4659C31.7708 14.5007 31.783 14.5344 31.7991 14.5663L31.9085 14.9222C32.2185 15.8894 32.5011 16.8658 32.7564 17.8604C32.9387 18.5266 33.1028 19.2109 33.2578 19.8953C33.5404 21.1363 33.7865 22.4047 33.9962 23.6913C34.0418 24.0016 34.0965 24.3027 34.1329 24.6129C34.2423 25.3703 34.3426 26.1277 34.4247 26.8942C34.4611 27.1771 34.4885 27.4691 34.5067 27.7519C34.5614 28.2812 34.5979 28.8195 34.6343 29.3488C34.7255 30.6902 34.7711 32.0407 34.7711 33.4003Z" fill="#C4D0FB"/>
</g>
<rect x="8.02441" width="66.8675" height="60.1807" rx="16.0482" fill="white"/>
<path d="M41.5088 47.7584C40.323 47.7584 39.4181 47.4308 38.794 46.7755C38.1699 46.1202 37.8578 45.1996 37.8578 44.0138V20.3294H29.5729C28.6056 20.3294 27.8567 20.0641 27.3262 19.5337C26.7957 19.0032 26.5305 18.2699 26.5305 17.3337C26.5305 16.3664 26.7957 15.6331 27.3262 15.1338C27.8567 14.6033 28.6056 14.3381 29.5729 14.3381H53.3978C54.3652 14.3381 55.1141 14.6033 55.6446 15.1338C56.1751 15.6331 56.4403 16.3664 56.4403 17.3337C56.4403 18.2699 56.1751 19.0032 55.6446 19.5337C55.1141 20.0641 54.3652 20.3294 53.3978 20.3294H45.1129V44.0138C45.1129 45.1996 44.8009 46.1202 44.1768 46.7755C43.5839 47.4308 42.6946 47.7584 41.5088 47.7584Z" fill="#6A5AE0"/>
</svg>
