<svg width="45" height="45" viewBox="0 0 45 45" fill="none" xmlns="http://www.w3.org/2000/svg">
<mask id="mask0_147_53" style="mask-type:alpha" maskUnits="userSpaceOnUse" x="0" y="0" width="45" height="45">
<rect width="45" height="45" rx="10.8" fill="#6A5AE0"/>
</mask>
<g mask="url(#mask0_147_53)">
<path d="M46 32.435C45.9998 38.6848 43.4854 44.6785 39.0097 49.0978C34.534 53.5171 28.4638 55.9998 22.1343 56C21.8078 56 21.4876 55.9939 21.1612 55.9818C19.4178 55.9115 17.6873 55.6545 16 55.2155C16.3264 55.0513 16.6467 54.8871 16.9669 54.7108C16.9731 54.7108 16.9793 54.7047 16.9916 54.6986L16.9977 54.6925C17.3365 54.5101 17.6691 54.3277 17.9955 54.1391C18.0755 54.0905 18.1556 54.0479 18.2357 54.0053C18.5436 53.8229 18.8516 53.6405 19.1534 53.4459C19.2426 53.3981 19.3289 53.3453 19.412 53.2878C19.6461 53.1479 19.8801 52.9958 20.108 52.8438C20.2681 52.7404 20.4344 52.631 20.5884 52.5276C20.8224 52.3695 21.0503 52.2114 21.2782 52.0472C21.4321 51.9438 21.5738 51.8404 21.7216 51.7249C21.9187 51.5911 22.1096 51.4451 22.3005 51.2992C22.473 51.1775 22.6393 51.0498 22.8056 50.916C23.0396 50.7397 23.2675 50.5573 23.4954 50.3627C23.5939 50.2897 23.6925 50.2106 23.791 50.1255C24.0374 49.9248 24.2776 49.718 24.5177 49.5052C24.6471 49.3957 24.7764 49.2863 24.9058 49.1646C25.0474 49.043 25.1829 48.9214 25.3184 48.7937C25.5771 48.5626 25.8296 48.3193 26.0821 48.0761C26.1159 48.0488 26.1469 48.0183 26.1745 47.9849C26.4208 47.7538 26.661 47.5105 26.8951 47.2673C27.0614 47.1092 27.2153 46.945 27.3632 46.7808C27.5418 46.6044 27.7081 46.422 27.8743 46.2395C27.9729 46.1362 28.0653 46.0328 28.1515 45.9294C28.3732 45.6861 28.5888 45.4368 28.8043 45.1875C28.9152 45.0598 29.0261 44.926 29.1308 44.7922C29.2909 44.6098 29.4449 44.4273 29.5865 44.2388C29.7343 44.0624 29.876 43.88 30.0115 43.6976C30.1408 43.5395 30.264 43.3753 30.381 43.2171C30.5411 43.0104 30.6951 42.8036 30.8429 42.5908C30.9907 42.3779 31.1509 42.1651 31.2987 41.9462C31.372 41.8507 31.4399 41.7512 31.5019 41.6482C31.7113 41.3441 31.9146 41.034 32.1117 40.7238C32.3642 40.3407 32.6044 39.9515 32.8323 39.5562C32.937 39.3859 33.0355 39.2157 33.134 39.0454C33.9327 37.6545 34.6444 36.2166 35.265 34.7398C35.3574 34.5331 35.4436 34.3263 35.5237 34.1135C35.6222 33.8885 35.7085 33.6574 35.7947 33.4263C35.8686 33.2378 35.9425 33.0432 36.0102 32.8486C36.0903 32.6357 36.1642 32.4168 36.2381 32.2039C36.5091 31.4255 36.7555 30.6411 36.971 29.8444C37.0265 29.6437 37.0819 29.4491 37.1312 29.2484C37.1681 29.1207 37.1989 28.9991 37.2297 28.8714L37.3775 28.2511C37.5746 27.4058 37.7409 26.5544 37.8825 25.6909L37.9749 25.1071C37.9872 25.0159 37.9996 24.9307 38.0119 24.8395C38.0488 24.6084 38.0796 24.3773 38.1043 24.1462C38.1474 23.7996 38.1905 23.453 38.2213 23.1063C38.2336 23.0151 38.2398 22.9239 38.2459 22.8327C38.2706 22.5955 38.289 22.3523 38.3075 22.1151C38.326 21.8779 38.3383 21.6286 38.3506 21.3853C38.3629 21.2151 38.3691 21.0448 38.3753 20.8684C38.3999 20.309 38.4122 19.7495 38.4122 19.19C38.4122 18.9042 38.4122 18.6244 38.3999 18.3447C38.3999 18.1988 38.3999 18.0589 38.3937 17.9129C38.3753 17.4082 38.3506 16.9095 38.3137 16.4109L38.3137 16.3926C38.3075 16.271 38.3014 16.1494 38.289 16.0277C38.2644 15.6933 38.2336 15.3649 38.2028 15.0304C38.203 15.0199 38.2009 15.0095 38.1967 15C39.0264 15.7462 39.8023 16.5489 40.5186 17.4021L40.537 17.4203C40.5404 17.4236 40.5426 17.4279 40.5432 17.4325C44.0788 21.6518 46.0091 26.9588 46 32.435Z" fill="#FF8FA2"/>
<path d="M38.7972 19.0274C38.8005 26.3729 36.8042 33.5827 33.0194 39.8937C29.2347 46.2047 23.8023 51.3821 17.2973 54.8781C17.2892 54.8874 17.2783 54.8939 17.2663 54.8965L17.2602 54.9026C16.9386 55.0746 16.6171 55.2404 16.2955 55.4062C14.2776 54.878 12.3395 54.085 10.5325 53.0481C9.22534 52.3004 7.99148 51.4327 6.84717 50.4566C7.06359 50.2294 7.27383 50.0022 7.48407 49.7688L7.49019 49.7627C7.49019 49.7565 7.49643 49.7504 7.50262 49.7443L7.50874 49.7443C14.2751 42.2758 18.0118 32.5804 17.996 22.5338C17.997 18.2061 17.3083 13.9054 15.9554 9.79142L15.9493 9.79142C15.9493 9.77914 15.9431 9.76685 15.9431 9.75457L15.9368 9.75457C15.9333 9.74469 15.9312 9.73434 15.9307 9.72386C15.807 9.34926 15.6772 8.97468 15.5411 8.60622L22.4543 8.60622C28.4194 8.59802 34.1718 10.806 38.5807 14.7963C38.6302 15.263 38.6673 15.7297 38.6982 16.2025C38.7662 17.1359 38.7972 18.0755 38.7972 19.0274Z" fill="#9087E5"/>
<path d="M17.9999 22.4775C17.9999 22.889 17.9938 23.3004 17.9815 23.7057C17.9754 23.9698 17.9631 24.2277 17.9508 24.4917C17.9017 25.548 17.8097 26.5981 17.6747 27.642C17.6441 27.9122 17.6073 28.1763 17.5643 28.4403C17.5214 28.7658 17.4662 29.0851 17.4109 29.4106C17.3619 29.7176 17.3066 30.0185 17.2453 30.3256C17.233 30.3992 17.2146 30.4729 17.2023 30.5466C17.1533 30.7984 17.098 31.0563 17.0428 31.3081C16.7547 32.6168 16.4004 33.9101 15.9815 35.183C15.9017 35.4348 15.8158 35.6804 15.7299 35.9199C15.7224 35.9494 15.7122 35.9782 15.6993 36.0059C15.6134 36.2576 15.5275 36.4971 15.4354 36.7428C15.4109 36.8165 15.3802 36.8963 15.3496 36.9761C15.2514 37.2402 15.1471 37.4981 15.0428 37.756C14.9262 38.0508 14.8035 38.3455 14.6747 38.6342C14.5459 38.9351 14.4109 39.236 14.2759 39.5369C14.1471 39.8132 14.0121 40.0895 13.8833 40.3597C13.7422 40.6484 13.6011 40.9308 13.4538 41.2072C13.3066 41.4835 13.1593 41.766 13.006 42.0423C12.8526 42.3187 12.6992 42.595 12.5458 42.8652C12.3925 43.1354 12.2268 43.4117 12.0612 43.6819C11.8955 43.9521 11.7299 44.2162 11.5581 44.4803C11.2207 45.0084 10.871 45.5303 10.509 46.04C10.147 46.5497 9.76665 47.0533 9.38627 47.5507C8.80957 48.2814 8.21245 48.9938 7.59483 49.6877L7.5887 49.6877C7.58256 49.6938 7.58256 49.6939 7.58256 49.7C7.58256 49.7016 7.58195 49.7032 7.58078 49.7043C7.57962 49.7055 7.57808 49.7061 7.57643 49.7061C7.36783 49.9395 7.15311 50.1728 6.93838 50.4001C5.97174 49.5686 5.07313 48.6609 4.25124 47.6858C4.245 47.6741 4.23668 47.6637 4.2267 47.6551C0.618726 43.372 -1.35702 37.9483 -1.35008 32.3459L-1.35008 8.55005L15.5643 8.55005C15.6993 8.9185 15.8281 9.28695 15.9447 9.66155L15.9508 9.66767C15.9513 9.67815 15.9534 9.68851 15.9569 9.69839L15.9631 9.69839L15.9631 9.71681C15.9627 9.72014 15.963 9.72352 15.964 9.72671C15.9651 9.72989 15.9669 9.7328 15.9692 9.73523L15.9753 9.73523C15.9808 9.75865 15.989 9.78132 15.9999 9.80277L16.0735 10.0423C16.2821 10.6932 16.4723 11.3503 16.6441 12.0196C16.7668 12.4679 16.8772 12.9285 16.9815 13.389C17.1717 14.2242 17.3373 15.0778 17.4784 15.9437C17.5091 16.1524 17.5459 16.3551 17.5704 16.5639C17.6441 17.0736 17.7116 17.5833 17.7668 18.0991C17.7913 18.2895 17.8097 18.486 17.822 18.6763C17.8588 19.0325 17.8833 19.3948 17.9079 19.751C17.9692 20.6537 17.9999 21.5625 17.9999 22.4775Z" fill="#C4D0FB"/>
</g>
<rect width="45" height="40.5" rx="10.8" fill="white"/>
<path d="M22.5341 32.1834C21.7361 32.1834 21.1271 31.9629 20.7071 31.5219C20.2871 31.0809 20.0771 30.4614 20.0771 29.6634V13.7244H14.5016C13.8506 13.7244 13.3466 13.5459 12.9896 13.1889C12.6326 12.8319 12.4541 12.3384 12.4541 11.7084C12.4541 11.0574 12.6326 10.5639 12.9896 10.2279C13.3466 9.8709 13.8506 9.6924 14.5016 9.6924H30.5351C31.1861 9.6924 31.6901 9.8709 32.0471 10.2279C32.4041 10.5639 32.5826 11.0574 32.5826 11.7084C32.5826 12.3384 32.4041 12.8319 32.0471 13.1889C31.6901 13.5459 31.1861 13.7244 30.5351 13.7244H24.9596V29.6634C24.9596 30.4614 24.7496 31.0809 24.3296 31.5219C23.9306 31.9629 23.3321 32.1834 22.5341 32.1834Z" fill="#6A5AE0"/>
</svg>
